<?xml version="1.0" encoding="utf-8"?>
<svg version="1.1" xmlns:xlink="http://www.w3.org/1999/xlink" width="68px" height="26px" xmlns="http://www.w3.org/2000/svg">
  <g transform="matrix(1 0 0 1 -1092 -27 )">
    <path d="M 1092.5 31  A 3.5 3.5 0 0 1 1096 27.5 L 1156 27.5  A 3.5 3.5 0 0 1 1159.5 31 L 1159.5 49  A 3.5 3.5 0 0 1 1156 52.5 L 1096 52.5  A 3.5 3.5 0 0 1 1092.5 49 L 1092.5 31  Z " fill-rule="nonzero" fill="#f2f2f2" stroke="none" />
    <path d="M 1092.5 31  A 3.5 3.5 0 0 1 1096 27.5 L 1156 27.5  A 3.5 3.5 0 0 1 1159.5 31 L 1159.5 49  A 3.5 3.5 0 0 1 1156 52.5 L 1096 52.5  A 3.5 3.5 0 0 1 1092.5 49 L 1092.5 31  Z " stroke-width="1" stroke="#d7d7d7" fill="none" />
  </g>
</svg>