<?xml version="1.0" encoding="utf-8"?>
<svg version="1.1" xmlns:xlink="http://www.w3.org/1999/xlink" width="16px" height="16px" xmlns="http://www.w3.org/2000/svg">
  <g transform="matrix(1 0 0 1 -1073 -229 )">
    <path d="M 16 8  C 16 7.63133333333333  15.7013333333333 7.33333333333333  15.3333333333333 7.33333333333333  L 8.67466666666667 7.33333333333333  L 8.68133333333333 0.667333333333334  C 8.68133333333333 0.298666666666667  8.384 0  8.01466666666667 0  C 7.646 0  7.348 0.298  7.348 0.666  L 7.34133333333333 7.33333333333333  L 0.666666666666666 7.33333333333333  C 0.298 7.33333333333333  0 7.63133333333333  0 8  C 0 8.368  0.298 8.66666666666667  0.666666666666666 8.66666666666667  L 7.34 8.66666666666667  L 7.33333333333333 15.3326666666667  C 7.33266666666667 15.7006666666667  7.63066666666667 15.9993333333333  7.99866666666667 16  C 8.36733333333333 16  8.666 15.702  8.66666666666666 15.334  L 8.67333333333333 8.66666666666667  L 15.3333333333333 8.66666666666667  C 15.7013333333333 8.66666666666667  16 8.368  16 8  Z " fill-rule="nonzero" fill="#000000" stroke="none" transform="matrix(1 0 0 1 1073 229 )" />
  </g>
</svg>